# Blender v3.1.2 OBJ File: ''
# www.blender.org
mtllib enemy.mtl
o Cube
v 0.200771 0.200771 -2.305537
v 0.200771 -0.200771 -2.305537
v 0.204129 0.204129 1.477943
v 0.204129 -0.204129 1.477943
v -0.200771 0.200771 -2.305537
v -0.200771 -0.200771 -2.305537
v -0.204129 0.204129 1.477943
v -0.204129 -0.204129 1.477943
v -1.000000 -1.000000 0.000000
v 1.000000 1.000000 0.000000
v -1.000000 1.000000 0.000000
v 1.000000 -1.000000 0.000000
v -1.000000 1.000000 -0.876468
v 1.000000 -1.000000 -0.876468
v -1.000000 -1.000000 -0.876468
v 1.000000 1.000000 -0.876468
v -0.521830 0.999999 -0.335220
v -0.521830 1.500197 -0.335220
v -0.521830 0.999999 -0.636137
v -0.521830 1.500197 -0.636137
v 0.415398 0.999999 -0.298203
v 0.415398 1.500197 -0.298203
v 0.415398 0.999999 -0.599120
v 0.415398 1.500197 -0.599120
v 0.247626 -1.000000 -0.281003
v 0.247626 -1.443302 -0.281003
v 0.247626 -1.000000 -0.575190
v 0.247626 -1.443302 -0.575190
v -0.558167 -0.999999 -0.281003
v -0.558167 -1.443302 -0.281003
v -0.558167 -0.999999 -0.575190
v -0.558167 -1.443302 -0.575190
vt 0.875000 0.625000
vt 0.625000 0.750000
vt 0.625000 0.625000
vt 0.375000 1.000000
vt 0.375000 0.750000
vt 0.625000 0.187500
vt 0.375000 0.250000
vt 0.375000 0.187500
vt 0.375000 0.625000
vt 0.125000 0.750000
vt 0.125000 0.625000
vt 0.625000 0.250000
vt 0.375000 0.500000
vt 0.625000 0.562500
vt 0.375000 0.562500
vt 0.125000 0.562500
vt 0.625000 0.000000
vt 0.375000 0.125000
vt 0.375000 0.000000
vt 0.875000 0.562500
vt 0.875000 0.500000
vt 0.625000 0.500000
vt 0.125000 0.500000
vt 0.625000 0.125000
vt 0.625000 0.000000
vt 0.375000 0.250000
vt 0.375000 0.000000
vt 0.625000 0.250000
vt 0.375000 0.500000
vt 0.625000 0.500000
vt 0.375000 0.750000
vt 0.625000 0.750000
vt 0.375000 1.000000
vt 0.125000 0.750000
vt 0.125000 0.500000
vt 0.875000 0.750000
vt 0.625000 0.000000
vt 0.375000 0.250000
vt 0.375000 0.000000
vt 0.625000 0.250000
vt 0.375000 0.500000
vt 0.625000 0.500000
vt 0.375000 0.750000
vt 0.625000 1.000000
vt 0.375000 1.000000
vt 0.125000 0.750000
vt 0.125000 0.500000
vt 0.875000 0.500000
vt 0.625000 0.750000
vt 0.875000 0.750000
vt 0.625000 1.000000
vt 0.625000 1.000000
vt 0.875000 0.500000
vt 0.875000 0.750000
vn 0.0000 0.8805 0.4741
vn 0.0000 0.0000 1.0000
vn -0.8728 0.0000 -0.4881
vn 0.0000 -0.8805 0.4741
vn 0.8805 0.0000 0.4741
vn 0.0000 0.0000 -1.0000
vn 1.0000 0.0000 0.0000
vn 0.0000 -1.0000 0.0000
vn -0.8805 0.0000 0.4741
vn 0.0000 1.0000 0.0000
vn 0.0000 0.8728 -0.4881
vn 0.0000 -0.8728 -0.4881
vn 0.8728 0.0000 -0.4881
vn -1.0000 0.0000 0.0000
vn 0.0395 0.0000 -0.9992
vn -0.0395 0.0000 0.9992
g Cube_Cube_Material
usemtl Material
s off
f 11/1/1 3/2/1 10/3/1
f 3/2/2 8/4/2 4/5/2
f 13/6/3 6/7/3 15/8/3
f 12/9/4 8/10/4 9/11/4
f 10/3/5 4/5/5 12/9/5
f 5/12/6 2/13/6 6/7/6
f 16/14/7 12/9/7 14/15/7
f 14/15/8 9/11/8 15/16/8
f 7/17/9 9/18/9 8/19/9
f 13/20/10 10/3/10 16/14/10
f 5/21/11 16/14/11 1/22/11
f 2/13/12 15/16/12 6/23/12
f 1/22/13 14/15/13 2/13/13
f 11/24/14 15/8/14 9/18/14
f 18/25/14 19/26/14 17/27/14
f 20/28/15 23/29/15 19/26/15
f 24/30/7 21/31/7 23/29/7
f 22/32/16 17/33/16 21/31/16
f 23/29/8 17/34/8 19/35/8
f 24/30/10 18/36/10 22/32/10
f 26/37/7 27/38/7 25/39/7
f 28/40/6 31/41/6 27/38/6
f 32/42/14 29/43/14 31/41/14
f 29/43/2 26/44/2 25/45/2
f 31/41/10 25/46/10 27/47/10
f 28/48/8 30/49/8 32/42/8
f 11/1/1 7/50/1 3/2/1
f 3/2/2 7/51/2 8/4/2
f 13/6/3 5/12/3 6/7/3
f 12/9/4 4/5/4 8/10/4
f 10/3/5 3/2/5 4/5/5
f 5/12/6 1/22/6 2/13/6
f 16/14/7 10/3/7 12/9/7
f 14/15/8 12/9/8 9/11/8
f 7/17/9 11/24/9 9/18/9
f 13/20/10 11/1/10 10/3/10
f 5/21/11 13/20/11 16/14/11
f 2/13/12 14/15/12 15/16/12
f 1/22/13 16/14/13 14/15/13
f 11/24/14 13/6/14 15/8/14
f 18/25/14 20/28/14 19/26/14
f 20/28/15 24/30/15 23/29/15
f 24/30/7 22/32/7 21/31/7
f 22/32/16 18/52/16 17/33/16
f 23/29/8 21/31/8 17/34/8
f 24/30/10 20/53/10 18/36/10
f 26/37/7 28/40/7 27/38/7
f 28/40/6 32/42/6 31/41/6
f 32/42/14 30/49/14 29/43/14
f 29/43/2 30/49/2 26/44/2
f 31/41/10 29/43/10 25/46/10
f 28/48/8 26/54/8 30/49/8
