# Blender 3.6.1
# www.blender.org
mtllib dragoneye.mtl
o 立方体
v 0.468654 0.634362 0.356016
v 0.416983 0.555103 0.342899
v 0.455424 0.647565 0.328348
v 0.403754 0.568306 0.315231
v 0.421051 0.659633 0.390836
v 0.369380 0.580374 0.377719
v 0.407822 0.672836 0.363168
v 0.356151 0.593577 0.350051
vn 0.7419 -0.3938 -0.5427
vn -0.3962 0.3954 -0.8286
vn -0.7419 0.3938 0.5427
vn 0.3962 -0.3954 0.8286
vn 0.5409 0.8298 0.1373
vn -0.5409 -0.8298 -0.1373
vt 0.625000 0.000000
vt 0.375000 0.250000
vt 0.375000 0.000000
vt 0.625000 0.250000
vt 0.375000 0.500000
vt 0.625000 0.500000
vt 0.375000 0.750000
vt 0.625000 0.750000
vt 0.375000 1.000000
vt 0.125000 0.750000
vt 0.125000 0.500000
vt 0.875000 0.500000
vt 0.625000 1.000000
vt 0.875000 0.750000
s 0
usemtl マテリアル.007
f 2/1/1 3/2/1 1/3/1
f 4/4/2 7/5/2 3/2/2
f 8/6/3 5/7/3 7/5/3
f 6/8/4 1/9/4 5/7/4
f 7/5/5 1/10/5 3/11/5
f 4/12/6 6/8/6 8/6/6
f 2/1/1 4/4/1 3/2/1
f 4/4/2 8/6/2 7/5/2
f 8/6/3 6/8/3 5/7/3
f 6/8/4 2/13/4 1/9/4
f 7/5/5 5/7/5 1/10/5
f 4/12/6 2/14/6 6/8/6
o 立方体.002
v 0.444050 0.670044 -0.158135
v 0.393442 0.590806 -0.138743
v 0.457538 0.654769 -0.185352
v 0.406930 0.575530 -0.165959
v 0.395956 0.691923 -0.194250
v 0.345348 0.612684 -0.174858
v 0.409444 0.676647 -0.221466
v 0.358836 0.597409 -0.202074
vn 0.7515 -0.3419 0.5643
vn 0.3967 -0.4493 -0.8005
vn -0.7515 0.3419 -0.5643
vn -0.3967 0.4493 0.8005
vn 0.5272 0.8254 -0.2020
vn -0.5272 -0.8254 0.2020
vt 0.625000 0.000000
vt 0.375000 0.250000
vt 0.375000 0.000000
vt 0.625000 0.250000
vt 0.375000 0.500000
vt 0.625000 0.500000
vt 0.375000 0.750000
vt 0.625000 0.750000
vt 0.375000 1.000000
vt 0.125000 0.750000
vt 0.125000 0.500000
vt 0.875000 0.500000
vt 0.625000 1.000000
vt 0.875000 0.750000
s 0
usemtl マテリアル.009
f 10/15/7 11/16/7 9/17/7
f 12/18/8 15/19/8 11/16/8
f 16/20/9 13/21/9 15/19/9
f 14/22/10 9/23/10 13/21/10
f 15/19/11 9/24/11 11/25/11
f 12/26/12 14/22/12 16/20/12
f 10/15/7 12/18/7 11/16/7
f 12/18/8 16/20/8 15/19/8
f 16/20/9 14/22/9 13/21/9
f 14/22/10 10/27/10 9/23/10
f 15/19/11 13/21/11 9/24/11
f 12/26/12 10/28/12 14/22/12
