# Blender 3.6.1
# www.blender.org
mtllib dragonbite.mtl
o 立方体.003
v 0.489627 0.660001 0.344644
v 0.412611 0.541988 0.325358
v 0.472523 0.676959 0.309178
v 0.395507 0.558946 0.289892
v 0.403490 0.705843 0.408106
v 0.326474 0.587830 0.388820
v 0.386386 0.722802 0.372640
v 0.309370 0.604789 0.353353
vn 0.7400 -0.3938 -0.5452
vn -0.3990 0.3956 -0.8273
vn -0.7400 0.3938 0.5452
vn 0.3990 -0.3956 0.8273
vn 0.5415 0.8297 0.1356
vn -0.5415 -0.8297 -0.1356
vt 0.625000 0.000000
vt 0.375000 0.250000
vt 0.375000 0.000000
vt 0.625000 0.250000
vt 0.375000 0.500000
vt 0.625000 0.500000
vt 0.375000 0.750000
vt 0.625000 0.750000
vt 0.375000 1.000000
vt 0.125000 0.750000
vt 0.125000 0.500000
vt 0.875000 0.500000
vt 0.625000 1.000000
vt 0.875000 0.750000
s 0
usemtl マテリアル.003
f 2/1/1 3/2/1 1/3/1
f 4/4/2 7/5/2 3/2/2
f 8/6/3 5/7/3 7/5/3
f 6/8/4 1/9/4 5/7/4
f 7/5/5 1/10/5 3/11/5
f 4/12/6 6/8/6 8/6/6
f 2/1/1 4/4/1 3/2/1
f 4/4/2 8/6/2 7/5/2
f 8/6/3 6/8/3 5/7/3
f 6/8/4 2/13/4 1/9/4
f 7/5/5 5/7/5 1/10/5
f 4/12/6 2/14/6 6/8/6
o 立方体.001
v 0.466351 0.696041 -0.133999
v 0.394692 0.575581 -0.111231
v 0.478801 0.681563 -0.171408
v 0.407142 0.561104 -0.148639
v 0.372294 0.742667 -0.183347
v 0.300634 0.622207 -0.160578
v 0.384744 0.728189 -0.220756
v 0.313084 0.607730 -0.197987
vn 0.8108 -0.4019 0.4254
vn 0.2964 -0.3447 -0.8907
vn -0.8108 0.4019 -0.4254
vn -0.2964 0.3447 0.8907
vn 0.5046 0.8483 -0.1603
vn -0.5046 -0.8483 0.1603
vt 0.625000 0.000000
vt 0.375000 0.250000
vt 0.375000 0.000000
vt 0.625000 0.250000
vt 0.375000 0.500000
vt 0.625000 0.500000
vt 0.375000 0.750000
vt 0.625000 0.750000
vt 0.375000 1.000000
vt 0.125000 0.750000
vt 0.125000 0.500000
vt 0.875000 0.500000
vt 0.625000 1.000000
vt 0.875000 0.750000
s 0
usemtl マテリアル.008
f 10/15/7 11/16/7 9/17/7
f 12/18/8 15/19/8 11/16/8
f 16/20/9 13/21/9 15/19/9
f 14/22/10 9/23/10 13/21/10
f 15/19/11 9/24/11 11/25/11
f 12/26/12 14/22/12 16/20/12
f 10/15/7 12/18/7 11/16/7
f 12/18/8 16/20/8 15/19/8
f 16/20/9 14/22/9 13/21/9
f 14/22/10 10/27/10 9/23/10
f 15/19/11 13/21/11 9/24/11
f 12/26/12 10/28/12 14/22/12
o 立方体.005
v 0.428410 1.121823 0.116246
v 0.426628 1.121372 0.134714
v 0.430982 1.120174 0.116453
v 0.429200 1.119724 0.134922
v 0.093884 0.901842 0.078608
v 0.092102 0.901391 0.097077
v 0.401880 0.704413 0.103501
v 0.400098 0.703963 0.121969
vn 0.5341 0.8423 0.0721
vn 0.9929 -0.0724 0.0940
vn -0.5341 -0.8423 -0.0721
vn -0.5466 0.8368 -0.0323
vn 0.0960 0.0243 -0.9951
vn -0.0960 -0.0243 0.9951
vt 0.625000 0.000000
vt 0.375000 0.250000
vt 0.375000 0.000000
vt 0.625000 0.250000
vt 0.375000 0.500000
vt 0.625000 0.500000
vt 0.375000 0.750000
vt 0.625000 0.750000
vt 0.375000 1.000000
vt 0.125000 0.500000
vt 0.125000 0.750000
vt 0.875000 0.500000
vt 0.625000 1.000000
vt 0.875000 0.750000
s 0
usemtl マテリアル.010
f 18/29/13 19/30/13 17/31/13
f 20/32/14 23/33/14 19/30/14
f 24/34/15 21/35/15 23/33/15
f 22/36/16 17/37/16 21/35/16
f 19/38/17 21/35/17 17/39/17
f 20/40/18 22/36/18 24/34/18
f 18/29/13 20/32/13 19/30/13
f 20/32/14 24/34/14 23/33/14
f 24/34/15 22/36/15 21/35/15
f 22/36/16 18/41/16 17/37/16
f 19/38/17 23/33/17 21/35/17
f 20/40/18 18/42/18 22/36/18
o 立方体.006
v 0.584363 0.393243 0.215205
v 0.570970 0.262101 0.186139
v 0.676306 0.340785 0.157539
v 0.572758 0.261081 0.185018
v 0.576849 0.397530 0.199324
v 0.563456 0.266388 0.170259
v 0.668792 0.345072 0.141659
v 0.565244 0.265368 0.169137
vn 0.4155 -0.2371 0.8782
vn 0.4754 -0.7665 -0.4319
vn -0.4155 0.2371 -0.8782
vn -0.9042 -0.0023 0.4272
vn 0.4956 0.8686 -0.0000
vn -0.4956 -0.8686 -0.0000
vt 0.625000 0.000000
vt 0.375000 0.250000
vt 0.375000 0.000000
vt 0.625000 0.250000
vt 0.375000 0.500000
vt 0.625000 0.750000
vt 0.375000 0.750000
vt 0.375000 1.000000
vt 0.125000 0.750000
vt 0.125000 0.500000
vt 0.875000 0.500000
vt 0.625000 0.500000
vt 0.625000 1.000000
vt 0.875000 0.750000
s 0
usemtl マテリアル.011
f 26/43/19 27/44/19 25/45/19
f 28/46/20 31/47/20 27/44/20
f 31/47/21 30/48/21 29/49/21
f 30/48/22 25/50/22 29/49/22
f 31/47/23 25/51/23 27/52/23
f 28/53/24 30/48/24 32/54/24
f 26/43/19 28/46/19 27/44/19
f 28/46/20 32/54/20 31/47/20
f 31/47/21 32/54/21 30/48/21
f 30/48/22 26/55/22 25/50/22
f 31/47/23 29/49/23 25/51/23
f 28/53/24 26/56/24 30/48/24
o 立方体.007
v 0.660501 0.342653 0.035078
v 0.547300 0.270513 0.022427
v 0.566319 0.400115 -0.015187
v 0.547181 0.270586 0.022364
v 0.656296 0.346999 0.047924
v 0.543095 0.274859 0.035274
v 0.562114 0.404460 -0.002341
v 0.542976 0.274931 0.035210
vn 0.2961 -0.3061 -0.9048
vn -0.9448 0.0455 -0.3246
vn -0.2961 0.3061 0.9048
vn 0.4554 -0.7874 0.4154
vn 0.5557 0.8256 -0.0974
vn -0.5557 -0.8256 0.0974
vt 0.375000 0.000000
vt 0.625000 0.250000
vt 0.375000 0.250000
vt 0.375000 0.500000
vt 0.625000 0.500000
vt 0.375000 0.750000
vt 0.625000 0.750000
vt 0.375000 1.000000
vt 0.125000 0.750000
vt 0.125000 0.500000
vt 0.875000 0.500000
vt 0.625000 0.000000
vt 0.625000 1.000000
vt 0.875000 0.750000
s 0
usemtl マテリアル.012
f 33/57/25 36/58/25 35/59/25
f 36/58/26 39/60/26 35/59/26
f 40/61/27 37/62/27 39/60/27
f 38/63/28 33/64/28 37/62/28
f 39/60/29 33/65/29 35/66/29
f 36/67/30 38/63/30 40/61/30
f 33/57/25 34/68/25 36/58/25
f 36/58/26 40/61/26 39/60/26
f 40/61/27 38/63/27 37/62/27
f 38/63/28 34/69/28 33/64/28
f 39/60/29 37/62/29 33/65/29
f 36/67/30 34/70/30 38/63/30
