# Blender v3.1.2 OBJ File: 'dr.blend'
# www.blender.org
mtllib wingL.mtl
o 立方体.008_立方体
v 0.406025 0.616481 0.598289
v 0.406025 0.557404 0.627457
v 0.187547 0.351509 0.061611
v 0.187547 0.292432 0.090779
v 0.464419 0.616481 0.598289
v 0.464419 0.557404 0.627457
v 0.245942 0.351509 0.061611
v 0.245942 0.292432 0.090779
v 0.187547 0.378843 1.112414
v 0.187547 0.319766 1.141582
v 0.245942 0.319766 1.141582
v 0.245942 0.378843 1.112414
v 0.352537 0.091772 0.412234
v 0.294143 0.091772 0.412234
v 0.352537 0.366854 0.738858
v 0.294143 0.366854 0.738858
v 0.294143 0.483995 0.329950
v 0.294143 0.424918 0.359118
v 0.352537 0.483995 0.329950
v 0.352537 0.424918 0.359118
v 0.352537 0.189211 0.391632
v 0.352537 0.321697 0.460764
v 0.294143 0.321697 0.460764
v 0.294143 0.189211 0.391632
v 0.352537 0.274741 0.906137
v 0.294143 0.274741 0.906137
v 0.464419 -0.163465 0.676852
v 0.406025 -0.163465 0.676852
vt 0.625000 0.125000
vt 0.375000 0.125000
vt 0.375000 0.250000
vt 0.625000 0.250000
vt 0.375000 0.500000
vt 0.625000 0.625000
vt 0.375000 0.625000
vt 0.375000 0.750000
vt 0.625000 0.750000
vt 0.625000 0.750000
vt 0.625000 0.750000
vt 0.125000 0.625000
vt 0.125000 0.750000
vt 0.875000 0.750000
vt 0.875000 0.750000
vt 0.625000 0.750000
vt 0.375000 0.750000
vt 0.375000 1.000000
vt 0.625000 0.000000
vt 0.625000 0.000000
vt 0.375000 0.000000
vt 0.125000 0.750000
vt 0.875000 0.750000
vt 0.625000 0.750000
vt 0.625000 0.750000
vt 0.625000 0.000000
vt 0.625000 0.000000
vt 0.625000 0.500000
vt 0.875000 0.625000
vt 0.125000 0.500000
vt 0.375000 0.000000
vt 0.875000 0.625000
vt 0.625000 0.625000
vt 0.625000 0.125000
vt 0.625000 0.000000
vt 0.625000 1.000000
vt 0.625000 1.000000
vt 0.625000 0.750000
vt 0.875000 0.750000
vt 0.625000 1.000000
vt 0.625000 0.000000
vt 0.625000 0.000000
vt 0.875000 0.750000
vt 0.875000 0.500000
vn -0.9420 0.1485 0.3009
vn 0.0000 -0.4427 -0.8967
vn 0.9367 -0.1550 -0.3140
vn 0.8910 -0.4135 0.1875
vn 0.0000 0.8967 -0.4427
vn 0.0000 -0.5774 0.8165
vn 0.0000 0.4427 0.8967
vn 0.8522 0.2317 0.4692
vn -0.8522 -0.2317 -0.4692
vn 0.0000 0.9077 0.4196
vn 0.0000 -0.7649 0.6442
vn 0.8205 0.5007 0.2757
vn 0.0000 0.4196 -0.9077
vn -0.8893 0.3499 -0.2947
vn 0.0000 -0.8967 0.4427
vn 0.9420 -0.1485 -0.3009
vn -0.9367 0.1550 0.3140
vn 0.0000 -0.4626 0.8866
vn -1.0000 0.0000 0.0000
vn 0.0000 -0.1367 -0.9906
vn 0.9305 -0.2571 -0.2610
vn 0.0000 -0.4636 0.8860
vn 0.0000 0.1161 -0.9932
vn 0.0000 -0.9822 0.1878
vn -0.9753 -0.1933 -0.1065
vn 0.8893 -0.3499 0.2947
vn 0.9753 0.1933 0.1065
vn -0.8910 0.4135 -0.1875
vn -0.9305 0.2571 0.2610
vn 1.0000 0.0000 0.0000
vn -0.8205 -0.5007 -0.2757
usemtl マテリアル.013
s off
f 18/1/1 17/2/1 3/3/1
f 4/4/2 3/3/2 7/5/2
f 20/6/3 19/7/3 5/8/3
f 6/9/4 11/10/4 15/11/4
f 19/7/5 17/12/5 1/13/5
f 2/14/6 23/15/6 22/16/6
f 11/10/7 12/17/7 9/18/7
f 6/9/8 5/8/8 12/17/8
f 2/19/9 10/20/9 9/21/9
f 1/13/10 9/22/10 12/17/10
f 14/23/11 13/24/11 15/11/11
f 15/11/12 11/10/12 25/25/12
f 2/14/13 6/9/13 13/24/13
f 2/19/14 14/26/14 16/27/14
f 8/28/15 20/6/15 18/29/15
f 7/5/5 3/30/5 17/12/5
f 8/28/16 7/5/16 19/7/16
f 2/19/17 1/31/17 17/2/17
f 24/32/18 21/33/18 22/16/18
f 18/1/19 24/34/19 23/35/19
f 18/29/20 20/6/20 21/33/20
f 20/6/21 6/9/21 22/16/21
f 25/25/22 26/36/22 28/37/22
f 15/11/23 27/38/23 28/39/23
f 11/10/24 10/40/24 26/36/24
f 16/27/25 28/41/25 26/42/25
f 18/1/1 3/3/1 4/4/1
f 4/4/2 7/5/2 8/28/2
f 20/6/3 5/8/3 6/9/3
f 6/9/26 15/11/26 13/24/26
f 19/7/5 1/13/5 5/8/5
f 2/14/6 22/16/6 6/9/6
f 11/10/7 9/18/7 10/40/7
f 6/9/8 12/17/8 11/10/8
f 2/19/9 9/21/9 1/31/9
f 1/13/10 12/17/10 5/8/10
f 14/23/11 15/11/11 16/43/11
f 15/11/27 25/25/27 27/38/27
f 2/14/13 13/24/13 14/23/13
f 2/19/28 16/27/28 10/20/28
f 8/28/15 18/29/15 4/44/15
f 7/5/5 17/12/5 19/7/5
f 8/28/16 19/7/16 20/6/16
f 2/19/17 17/2/17 18/1/17
f 24/32/18 22/16/18 23/15/18
f 18/1/29 23/35/29 2/19/29
f 18/29/20 21/33/20 24/32/20
f 20/6/30 22/16/30 21/33/30
f 25/25/22 28/37/22 27/38/22
f 15/11/23 28/39/23 16/43/23
f 11/10/24 26/36/24 25/25/24
f 16/27/31 26/42/31 10/20/31
